<svg xmlns="http://www.w3.org/2000/svg"  viewBox="0 0 4000 4000" width="156px" height="156px"><path fill="#333" d="M2650,1999.937c0-358.452-291.611-650-650-650s-650,291.548-650,650s291.611,650,650,650 S2650,2358.389,2650,1999.937z M2000,2389.937c-215.059,0-390-174.941-390-390s174.941-390,390-390s390,174.941,390,390 S2215.059,2389.937,2000,2389.937z"/><path fill="#333" d="M2130,960V830c0-71.792-58.208-130-130-130s-130,58.208-130,130v130c0,71.729,58.208,130,130,130 S2130,1031.729,2130,960z"/><path fill="#333" d="M2919.268,1080.732c-50.781-50.781-133.174-50.781-183.828,0l-91.914,91.914 c-50.781,50.781-50.781,133.11,0,183.828c25.327,25.391,58.652,38.086,91.914,38.086s66.523-12.695,91.914-38.086l91.914-91.914 C2970.049,1213.843,2970.049,1131.514,2919.268,1080.732z"/><path fill="#333" d="M3170,1870h-130c-71.729,0-130,58.208-130,130s58.271,130,130,130h130c71.792,0,130-58.208,130-130 S3241.792,1870,3170,1870z"/><path fill="#333" d="M2735.439,2919.268c25.327,25.391,58.652,38.086,91.914,38.086s66.523-12.695,91.914-38.086 c50.781-50.781,50.781-133.11,0-183.828l-91.914-91.914c-50.781-50.781-133.174-50.781-183.828,0 c-50.781,50.718-50.781,133.047,0,183.828L2735.439,2919.268z"/><path fill="#333" d="M1870,3040v130c0,71.792,58.208,130,130,130s130-58.208,130-130v-130c0-71.729-58.208-130-130-130 S1870,2968.271,1870,3040z"/><path fill="#333" d="M1080.732,2919.268c25.391,25.391,58.652,38.086,91.914,38.086s66.587-12.695,91.914-38.086 l91.914-91.914c50.781-50.781,50.781-133.11,0-183.828c-50.654-50.781-133.047-50.781-183.828,0l-91.914,91.914 C1029.951,2786.157,1029.951,2868.486,1080.732,2919.268z"/><path fill="#333" d="M700,2000c0,71.792,58.208,130,130,130h130c71.729,0,130-58.208,130-130s-58.271-130-130-130H830 C758.208,1870,700,1928.208,700,2000z"/><path fill="#333" d="M1356.475,1356.475c50.781-50.718,50.781-133.047,0-183.828l-91.914-91.914 c-50.654-50.781-133.047-50.781-183.828,0s-50.781,133.11,0,183.828l91.914,91.914c25.391,25.391,58.652,38.086,91.914,38.086 S1331.147,1381.865,1356.475,1356.475z"/></svg>