<svg xmlns="http://www.w3.org/2000/svg"  viewBox="0 0 4000 4000" width="156px" height="156px"><path fill="white" d="M2000.127,3300c716.777,0,1300-583.223,1299.746-1305.649c0-57.891-38.34-108.862-93.945-124.858 c-55.605-16.25-115.273,6.538-146.06,55.542C2927.71,2134.824,2701.67,2260,2455.127,2260c-394.253,0-715-320.747-715-715 c0-246.543,125.176-472.583,334.966-604.741c48.94-30.85,68.809-90.581,52.749-146.187S2058.018,700,2000.127,700 c-716.777,0-1300,583.223-1300,1300S1283.35,3300,2000.127,3300z M1626.821,1030.396 c-94.644,151.772-146.694,328.872-146.694,514.604c0,537.646,437.354,975,975,975c186.304,0,364.038-52.305,516.064-147.646 C2821.133,2762.48,2442.432,3040,2000.127,3040c-573.447,0-1040-466.553-1040-1040 C960.127,1559.028,1235.996,1181.279,1626.821,1030.396z"/></svg>